<?xml version="1.0" standalone="no"?>
<!DOCTYPE svg PUBLIC "-//W3C//DTD SVG 1.1//EN" "http://www.w3.org/Graphics/SVG/1.1/DTD/svg11.dtd" >
<svg xmlns="http://www.w3.org/2000/svg" xmlns:xlink="http://www.w3.org/1999/xlink" version="1.1">
<metadata>
Created by FontForge 20150824 at Sun Sep 18 05:20:50 2016
 By Everything Fonts
Copyright 2014 Nissan Motors Co., Ltd. All rights reserved.
</metadata>
<defs>
<font id="NissanBrandW01-Regular" horiz-adv-x="240" >
  <font-face 
    font-family="Nissan Brand W01 Regular"
    font-weight="400"
    font-stretch="normal"
    units-per-em="1000"
    panose-1="2 11 5 4 2 2 4 3 2 4"
    ascent="800"
    descent="-200"
    x-height="513"
    cap-height="650"
    bbox="-106 -300 1252 883"
    underline-thickness="50"
    underline-position="-125"
    unicode-range="U+000D-2122"
  />
<missing-glyph horiz-adv-x="492" 
d="M492 0h-492v750h492v-750zM405 665h-318v-580h318v580z" />
    <glyph glyph-name=".notdef" horiz-adv-x="492" 
d="M492 0h-492v750h492v-750zM405 665h-318v-580h318v580z" />
    <glyph glyph-name="glyph1" horiz-adv-x="600" 
 />
    <glyph glyph-name="glyph1" horiz-adv-x="600" 
 />
    <glyph glyph-name="uni000D" unicode="&#xd;" horiz-adv-x="251" 
 />
    <glyph glyph-name="space" unicode=" " horiz-adv-x="251" 
 />
    <glyph glyph-name="exclam" unicode="!" horiz-adv-x="200" 
d="M138 177h-74l-12 473h98zM50 0v97h100v-97h-100z" />
    <glyph glyph-name="quotedbl" unicode="&#x22;" horiz-adv-x="442" 
d="M108 493l-13 230h92l-13 -230h-66zM268 493l-12 230h91l-12 -230h-67z" />
    <glyph glyph-name="numbersign" unicode="#" horiz-adv-x="600" 
d="M560 506v-70h-116l-28 -157h105v-71h-117l-37 -208h-77l36 208h-123l-37 -208h-77l37 208h-105v71h118l28 157h-105v70h117l39 217h77l-39 -217h123l39 217h77l-39 -217h104zM215 279h124l28 157h-123z" />
    <glyph glyph-name="dollar" unicode="$" horiz-adv-x="601" 
d="M500 51.5q-54 -47.5 -154 -59.5v-92h-76v88q-111 1 -226 44v95l29 -9q58 -20 103.5 -31.5t93.5 -12.5v220l-63 17q-154 41 -154 173q0 80 59.5 123.5t157.5 52.5v90h76v-89q89 -3 180 -33v-90q-59 18 -99.5 27t-80.5 11v-211l62 -18q66 -18 106 -59.5t40 -110.5
q0 -78 -54 -125.5zM270 574q-55 -6 -88.5 -27.5t-33.5 -62.5q0 -64 95 -90l27 -8v188zM427.5 114.5q29.5 24.5 29.5 59.5q0 69 -97 95l-14 4v-193q52 10 81.5 34.5z" />
    <glyph glyph-name="percent" unicode="%" horiz-adv-x="882" 
d="M323 611q42 -51 42 -136q0 -87 -42 -140.5t-126 -53.5q-83 0 -125 53.5t-42 138.5q0 86 42.5 137.5t127.5 51.5q81 0 123 -51zM224 0l337 650h97l-335 -650h-99zM138 557.5q-20 -34.5 -20 -98.5q0 -50 20.5 -78.5t58.5 -28.5t58.5 30.5t20.5 82.5q0 61 -19.5 94t-57.5 33
q-41 0 -61 -34.5zM810 314.5q42 -53.5 42 -138.5q0 -86 -42.5 -137.5t-127.5 -51.5q-81 0 -123 51t-42 136q0 87 42 140.5t126 53.5q83 0 125 -53.5zM627 265.5q-20 -31.5 -20 -86.5q0 -58 19 -90t57 -32q40 0 60 33.5t20 95.5q0 52 -20 81.5t-58 29.5t-58 -31.5z" />
    <glyph glyph-name="ampersand" unicode="&#x26;" horiz-adv-x="704" 
d="M429 654q44 -10 71 -23v-90q-89 42 -157 42q-42 0 -81.5 -18t-39.5 -66q0 -50 59 -117.5t191 -186.5q24 25 56.5 69t43.5 65h104q-39 -59 -79 -110t-62 -76q60 -48 89 -73q40 -35 85 -70h-136q-31 24 -102 82q-52 -48 -117.5 -73.5t-127.5 -25.5q-60 0 -102 22t-63 59
t-21 81q0 60 30.5 109.5t119.5 107.5q-37 46 -49.5 75t-12.5 65q0 42 21.5 79t68.5 60t118 23q49 0 93 -10zM163 232q-28 -33 -28 -70q0 -39 26.5 -67.5t76.5 -28.5q53 0 94 18t76 51q-44 42 -93 91.5t-67 70.5q-57 -32 -85 -65z" />
    <glyph glyph-name="quotesingle" unicode="'" horiz-adv-x="282" 
d="M108 493l-13 230h92l-13 -230h-66z" />
    <glyph glyph-name="parenleft" unicode="(" horiz-adv-x="294" 
d="M258 674q-34 -58 -58.5 -108t-44 -124t-19.5 -162q0 -87 19.5 -160t43.5 -122.5t59 -108.5l21 -35h-92q-67 117 -99.5 215.5t-32.5 212.5q0 113 32.5 211t99.5 215h91q-4 -8 -20 -34z" />
    <glyph glyph-name="parenright" unicode=")" horiz-adv-x="294" 
d="M206.5 493q32.5 -98 32.5 -211q0 -114 -32.5 -212.5t-99.5 -215.5h-92l21 35q35 59 59 108.5t43.5 122.5t19.5 160q0 88 -19.5 162t-44 124t-58.5 108q-16 26 -20 34h91q67 -117 99.5 -215z" />
    <glyph glyph-name="asterisk" unicode="*" horiz-adv-x="378" 
d="M218 530l115 11v-57l-113 13l66 -97l-50 -25l-46 103l-49 -105l-48 27l67 96l-115 -12v57l116 -11l-69 93l49 27l49 -103l47 103l49 -27z" />
    <glyph glyph-name="plus" unicode="+" horiz-adv-x="509" 
d="M212 84v172h-172v85h172v172h85v-172h172v-85h-172v-172h-85z" />
    <glyph glyph-name="comma" unicode="," horiz-adv-x="191" 
d="M0 -129l62 226h104l-82 -226h-84z" />
    <glyph glyph-name="hyphen" unicode="-" horiz-adv-x="410" 
d="M40 262v85h330v-85h-330z" />
    <glyph glyph-name="period" unicode="." horiz-adv-x="200" 
d="M50 0v97h100v-97h-100z" />
    <glyph glyph-name="slash" unicode="/" horiz-adv-x="504" 
d="M20 -80l364 764h100l-366 -764h-98z" />
    <glyph glyph-name="zero" unicode="0" horiz-adv-x="676" 
d="M489 620q64 -42 98.5 -118t34.5 -176q0 -101 -35.5 -177.5t-100 -118.5t-148.5 -42t-148.5 42t-100 118.5t-35.5 177.5q0 100 34 176t98.5 118t151.5 42t151 -42zM243 549q-43 -27 -70 -83t-27 -140q0 -81 27.5 -137.5t71 -84.5t93.5 -28q46 0 90.5 28.5t73 85
t28.5 136.5q0 84 -27 140t-71 83t-97 27q-49 0 -92 -27z" />
    <glyph glyph-name="one" unicode="1" horiz-adv-x="390" 
d="M197 0v552l-161 -44v82l249 72v-662h-88z" />
    <glyph glyph-name="two" unicode="2" horiz-adv-x="582" 
d="M454 609.5q63 -52.5 63 -143.5q0 -100 -90 -195.5t-226 -184.5h328v-86h-468v81q99 71 171.5 129t129.5 125.5t57 122.5q0 53 -35 85.5t-114 32.5q-86 0 -189 -49v93q102 42 200 42q110 0 173 -52.5z" />
    <glyph glyph-name="three" unicode="3" horiz-adv-x="591" 
d="M304 390q95 -3 165.5 -47t70.5 -140q0 -105 -75 -160t-203 -55q-79 0 -200 34v91q134 -37 196 -37q188 0 188 129q0 47 -30 71t-77 31t-118 7h-45v63l199 188h-313v85h450v-68z" />
    <glyph glyph-name="four" unicode="4" horiz-adv-x="616" 
d="M318 439q-87 -102 -158 -210h245v157h88v-157h96v-81h-96v-148h-88v148h-365v62q73 110 170.5 230.5t190.5 209.5h115q-111 -109 -198 -211z" />
    <glyph glyph-name="five" unicode="5" horiz-adv-x="595" 
d="M185 565l-17 -159q57 13 118 13q78 0 136 -26t88.5 -73t30.5 -109q0 -63 -32 -114t-93.5 -80t-147.5 -29q-92 0 -211 37v89q59 -17 108.5 -27.5t98.5 -10.5q87 0 135.5 34.5t48.5 99.5q0 55 -47 88.5t-129 33.5q-80 0 -200 -30l36 348h382v-85h-305z" />
    <glyph glyph-name="six" unicode="6" horiz-adv-x="608" 
d="M298.5 512q-87.5 -48 -123.5 -123q17 18 60.5 34.5t81.5 16.5q73 0 126.5 -29t81.5 -79t28 -110q0 -61 -30.5 -114.5t-87.5 -86.5t-134 -33q-72 0 -128 31t-87 88.5t-31 136.5q0 114 56 201.5t153 142t219 72.5v-87q-97 -13 -184.5 -61zM194.5 321q-43.5 -39 -43.5 -102
t40 -103t112 -40q69 0 112 39.5t43 104.5q0 67 -44 103.5t-108 36.5q-68 0 -111.5 -39z" />
    <glyph glyph-name="seven" unicode="7" horiz-adv-x="543" 
d="M340 294.5q-80 -152.5 -133 -294.5l-96 1q51 135 127 280.5t167 285.5h-368v83h478v-58q-95 -145 -175 -297.5z" />
    <glyph glyph-name="eight" unicode="8" horiz-adv-x="625" 
d="M478.5 616.5q67.5 -45.5 67.5 -131.5q0 -47 -33.5 -84t-77.5 -58q49 -16 91.5 -58.5t42.5 -101.5q0 -93 -71 -144t-186 -51q-114 0 -185 52t-71 145q0 58 42.5 100.5t92.5 57.5q-45 23 -78 59t-33 83q0 57 32 97t84.5 60t115.5 20q99 0 166.5 -45.5zM210.5 553
q-38.5 -28 -38.5 -75q0 -26 18 -49.5t50 -38t72 -14.5t72.5 14.5t51 37.5t18.5 49q0 48 -39.5 76t-102.5 28t-101.5 -28zM223.5 284q-37.5 -17 -56.5 -43.5t-19 -56.5q0 -58 49.5 -86t114.5 -28t115 28t50 84q0 31 -19 58t-56 44t-89 17t-89.5 -17z" />
    <glyph glyph-name="nine" unicode="9" horiz-adv-x="608" 
d="M435.5 631.5q55.5 -30.5 86.5 -88t31 -136.5q0 -114 -56 -202.5t-153 -143.5t-218 -73v87q96 13 184 62.5t124 124.5q-17 -18 -61 -34.5t-82 -16.5q-72 0 -125.5 29t-82 79t-28.5 110q0 61 30.5 114.5t88 86t134.5 32.5q72 0 127.5 -30.5zM194 535q-43 -39 -43 -104
q0 -67 44 -103.5t108 -36.5q68 0 111.5 39t43.5 102t-40 102.5t-112 39.5q-69 0 -112 -39z" />
    <glyph glyph-name="colon" unicode=":" horiz-adv-x="200" 
d="M50 364v97h100v-97h-100zM50 0v97h100v-97h-100z" />
    <glyph glyph-name="semicolon" unicode=";" horiz-adv-x="200" 
d="M50 364v97h100v-97h-100zM-14 -129l62 226h104l-82 -226h-84z" />
    <glyph glyph-name="less" unicode="&#x3c;" horiz-adv-x="589" 
d="M133 325l416 -159v-86l-509 200v92l509 201v-86z" />
    <glyph glyph-name="equal" unicode="=" horiz-adv-x="510" 
d="M40 333v85h430v-85h-430zM40 141v85h430v-85h-430z" />
    <glyph glyph-name="greater" unicode="&#x3e;" horiz-adv-x="589" 
d="M549 280l-509 -200v86l416 159l-416 162v86l509 -201v-92z" />
    <glyph glyph-name="question" unicode="?" horiz-adv-x="555" 
d="M448.5 620.5q73.5 -41.5 73.5 -135.5q0 -47 -18.5 -77t-45 -47t-70.5 -37q-41 -18 -65 -33t-40 -40t-16 -63v-30h-88v41q0 49 22 84t53 56.5t79 46.5q52 29 75.5 48.5t23.5 48.5q0 50 -48 72t-134 22q-62 0 -113 -13t-103 -34v89q116 43 218 43q123 0 196.5 -41.5zM171 0
v97h100v-97h-100z" />
    <glyph glyph-name="at" unicode="@" horiz-adv-x="976" 
d="M714.5 651q96.5 -44 154 -132.5t57.5 -216.5q0 -85 -26 -148.5t-71 -97.5t-101 -34q-41 0 -69 16t-44 37q-54 -38 -126 -38q-63 0 -114 25t-80.5 73t-29.5 116q0 62 27.5 110t77.5 74.5t114 26.5q70 0 121 -31l7 25h66v-301q0 -24 13 -37.5t38 -13.5q30 0 55 24.5t40 69
t15 100.5q0 105 -46 175t-123 104t-172 34q-105 0 -187 -46t-127 -126t-45 -179q0 -98 48.5 -180.5t135.5 -131.5t198 -49q72 0 150 20v-86q-73 -16 -147 -16q-141 0 -249 59t-166.5 160t-58.5 225q0 127 57 225.5t159.5 153.5t234.5 55q117 0 213.5 -44zM387 346
q-36 -35 -36 -94q0 -63 37.5 -100t100.5 -37q60 0 103 35v197q-46 34 -107 34q-62 0 -98 -35z" />
    <glyph glyph-name="A" unicode="A" horiz-adv-x="663" 
d="M510 168h-354q-40 -101 -60 -168h-101q45 136 101 271t105.5 236.5t74.5 142.5h111q20 -32 66 -124t104.5 -230.5t110.5 -295.5h-98q-31 94 -60 168zM333 565q-65 -122 -143 -313h287q-79 197 -144 313z" />
    <glyph glyph-name="B" unicode="B" horiz-adv-x="674" 
d="M526.5 612.5q65.5 -37.5 65.5 -122.5q0 -55 -26.5 -92.5t-72.5 -57.5v-1q53 -17 87 -57t34 -107q0 -97 -74 -136t-203 -39h-257v650h281q100 0 165.5 -37.5zM174 374h166q154 0 154 100q0 55 -42.5 72.5t-111.5 17.5h-166v-190zM174 86h158q88 0 136 20.5t48 79.5
q0 105 -180 105h-162v-205z" />
    <glyph glyph-name="C" unicode="C" horiz-adv-x="704" 
d="M549.5 650q59.5 -12 99.5 -30v-98q-101 52 -215 52q-81 0 -145.5 -28.5t-102 -86t-37.5 -139.5q0 -84 42.5 -138.5t109 -80t140.5 -25.5q61 0 104 9t109 35v-92q-96 -40 -220 -40q-97 0 -184.5 34.5t-143.5 109t-56 187.5t52.5 190t140 115t193.5 38q54 0 113.5 -12z" />
    <glyph glyph-name="D" unicode="D" horiz-adv-x="713" 
d="M558 572q100 -78 100 -248q0 -110 -50 -183t-132.5 -107t-182.5 -34h-213v650h221q157 0 257 -78zM174 86h99q141 0 211.5 62.5t70.5 176.5t-66.5 176.5t-206.5 62.5h-108v-478z" />
    <glyph glyph-name="E" unicode="E" horiz-adv-x="599" 
d="M174 564v-187h336v-85h-336v-206h365v-86h-459v650h459v-86h-365z" />
    <glyph glyph-name="F" unicode="F" horiz-adv-x="583" 
d="M174 564v-205h335v-86h-335v-273h-94v650h458v-86h-364z" />
    <glyph glyph-name="G" unicode="G" horiz-adv-x="721" 
d="M541.5 650.5q59.5 -11.5 106.5 -28.5v-92q-66 24 -114.5 34t-105.5 10q-78 0 -141 -28t-100.5 -85t-37.5 -139q0 -85 41 -140t105.5 -80.5t139.5 -25.5q68 0 122 15v228h94v-291q-52 -20 -102.5 -30t-120.5 -10q-97 0 -183 34.5t-140.5 109t-54.5 187.5q0 112 51.5 189.5
t137.5 115.5t190 38q53 0 112.5 -11.5z" />
    <glyph glyph-name="H" unicode="H" horiz-adv-x="719" 
d="M545 0v281h-371v-281h-94v650h94v-283h371v283h94v-650h-94z" />
    <glyph glyph-name="I" unicode="I" horiz-adv-x="254" 
d="M80 0v650h94v-650h-94z" />
    <glyph glyph-name="J" unicode="J" horiz-adv-x="454" 
d="M322.5 41q-56.5 -53 -150.5 -53q-27 0 -72 6.5t-90 19.5v94q36 -13 79 -22t79 -9q54 0 85.5 30.5t31.5 98.5v444h94v-466q0 -90 -56.5 -143z" />
    <glyph glyph-name="K" unicode="K" horiz-adv-x="659" 
d="M80 0v650h94v-650h-94zM308 326q200 -173 346 -326h-132q-143 148 -340 318q152 179 328 332h144q-223 -184 -346 -324z" />
    <glyph glyph-name="L" unicode="L" horiz-adv-x="557" 
d="M547 86v-86h-467v650h94v-564h373z" />
    <glyph glyph-name="M" unicode="M" horiz-adv-x="864" 
d="M711.5 633q2.5 -9 5.5 -19q34 -121 60.5 -250t56.5 -364h-95q-44 328 -93 523q-107 -257 -181 -454h-66q-155 410 -179 449q-51 -209 -94 -518h-96q33 238 61 370.5t61 245.5l9 34h95q87 -193 176 -425q93 229 180 425h95q2 -8 4.5 -17z" />
    <glyph glyph-name="N" unicode="N" horiz-adv-x="726" 
d="M567 0l-394 524v-524h-93v650h108l365 -486v486h93v-650h-79z" />
    <glyph glyph-name="O" unicode="O" horiz-adv-x="792" 
d="M585 620.5q77 -41.5 117 -117.5t40 -177q0 -102 -42.5 -178.5t-120 -118t-178.5 -41.5q-107 0 -186 42t-122 118.5t-43 177.5q0 102 42.5 178t122 117t185.5 41q108 0 185 -41.5zM217.5 510.5q-68.5 -63.5 -68.5 -184.5q0 -77 31.5 -133t88.5 -85.5t132 -29.5
q71 0 126 29.5t86.5 85.5t31.5 133q0 120 -67 184t-178 64q-114 0 -182.5 -63.5z" />
    <glyph glyph-name="P" unicode="P" horiz-adv-x="633" 
d="M456 632q55 -18 96 -67t41 -134t-41 -134t-96 -67t-106 -18h-176v-212h-94v650h270q51 0 106 -18zM174 298h164q66 0 110.5 31t44.5 101q0 71 -44 102.5t-111 31.5h-164v-266z" />
    <glyph glyph-name="Q" unicode="Q" horiz-adv-x="792" 
d="M585 620.5q77 -41.5 117 -117.5t40 -177q0 -102 -42.5 -178.5t-119.5 -117.5l90 -68l-56 -71l-143 103q-33 -6 -70 -6q-107 0 -186 42t-122 118.5t-43 177.5q0 102 42.5 178t122 117t185.5 41q108 0 185 -41.5zM217.5 510.5q-68.5 -63.5 -68.5 -184.5q0 -77 31.5 -133
t88.5 -85.5t132 -29.5q71 0 126 29.5t86.5 85.5t31.5 133q0 120 -67 184t-178 64q-114 0 -182.5 -63.5z" />
    <glyph glyph-name="R" unicode="R" horiz-adv-x="660" 
d="M317 238h-143v-238h-94v650h273q51 0 105.5 -17.5t95 -62.5t40.5 -122q0 -83 -46.5 -133.5t-113.5 -67.5q94 -100 201 -247h-125q-82 121 -193 238zM340 324q62 0 109 26t47 95q0 63 -43.5 91t-108.5 28h-170v-240h166z" />
    <glyph glyph-name="S" unicode="S" horiz-adv-x="605" 
d="M527 628v-90q-67 21 -113 30t-94 9q-73 0 -122 -21.5t-49 -71.5q0 -64 95 -90l165 -47q66 -18 106 -59.5t40 -110.5q0 -91 -72 -140t-204 -49q-116 0 -234 44v95l27 -9q67 -22 111.5 -33t95.5 -11q82 0 130.5 27t48.5 73q0 69 -97 95l-153 42q-154 41 -154 173
q0 90 74.5 134t191.5 44q103 0 207 -34z" />
    <glyph glyph-name="T" unicode="T" horiz-adv-x="626" 
d="M360 564v-564h-94v564h-246v86h586v-86h-246z" />
    <glyph glyph-name="U" unicode="U" horiz-adv-x="718" 
d="M573 68q-65 -80 -218 -80q-151 0 -215.5 80t-64.5 211v371h94v-372q0 -100 47 -151t139 -51q94 0 141.5 51t47.5 151v372h94v-371q0 -131 -65 -211z" />
    <glyph glyph-name="V" unicode="V" horiz-adv-x="663" 
d="M557.5 354.5q-58.5 -138.5 -104.5 -230.5t-66 -124h-111q-25 41 -74.5 142.5t-105.5 236.5t-101 271h101q11 -38 52 -144t91.5 -223.5t93.5 -197.5q66 117 117 244.5t120 320.5h98q-52 -157 -110.5 -295.5z" />
    <glyph glyph-name="W" unicode="W" horiz-adv-x="873" 
d="M775.5 287q-43.5 -146 -93.5 -287h-99q-64 151 -149 382q-76 -222 -147 -382h-97l-7 19q-50 138 -92.5 281t-82.5 350h96q35 -168 68 -288.5t70 -236.5q37 83 81.5 203.5t75.5 213.5h72q18 -54 67.5 -190t90.5 -228q76 225 139 526h97q-46 -217 -89.5 -363z" />
    <glyph glyph-name="X" unicode="X" horiz-adv-x="632" 
d="M637 0h-118l-205 265l-196 -265h-123l259 328l-257 322h121l195 -254l202 254h116l-251 -321z" />
    <glyph glyph-name="Y" unicode="Y" horiz-adv-x="606" 
d="M468 400q-80 -129 -118 -180v-220h-94v220q-38 50 -117 178t-144 252h110q52 -103 96.5 -179.5t101.5 -164.5q50 77 95 155t100 189h113q-63 -121 -143 -250z" />
    <glyph glyph-name="Z" unicode="Z" horiz-adv-x="599" 
d="M166 86h391v-86h-517v83l394 481h-394v86h519v-83z" />
    <glyph glyph-name="bracketleft" unicode="[" horiz-adv-x="294" 
d="M264 642h-99v-721h99v-67h-184v854h184v-66z" />
    <glyph glyph-name="backslash" unicode="\" horiz-adv-x="504" 
d="M484 -80h-98l-366 764h100z" />
    <glyph glyph-name="bracketright" unicode="]" horiz-adv-x="294" 
d="M30 -146v67h99v721h-99v66h184v-854h-184z" />
    <glyph glyph-name="asciicircum" unicode="^" horiz-adv-x="476" 
d="M344 281l-107 276l-105 -276h-82l151 369h73l152 -369h-82z" />
    <glyph glyph-name="underscore" unicode="_" horiz-adv-x="500" 
d="M0 -300v85h500v-85h-500z" />
    <glyph glyph-name="grave" unicode="`" 
d="M131 591l-101 145h106l74 -145h-79z" />
    <glyph glyph-name="a" unicode="a" horiz-adv-x="603" 
d="M469.5 473.5q58.5 -50.5 58.5 -170.5v-303h-68l-12 47q-37 -25 -87 -42t-105 -17q-88 0 -145.5 44.5t-57.5 126.5q0 86 62 126.5t154 40.5q45 0 90 -9.5t79 -26.5v30q0 70 -43 95t-119 25q-48 0 -90.5 -8t-100.5 -27v89q100 30 201 30q125 0 183.5 -50.5zM183.5 91
q35.5 -21 88.5 -21q84 0 166 52v93q-36 19 -77.5 27.5t-80.5 8.5q-60 0 -96 -22t-36 -69q0 -48 35.5 -69z" />
    <glyph glyph-name="b" unicode="b" horiz-adv-x="642" 
d="M471 493.5q59 -30.5 92.5 -90t33.5 -141.5q0 -87 -38 -149t-100 -93.5t-132 -31.5q-47 0 -94 14t-83 36l-10 -38h-65v691h90v-217q78 50 174 50q73 0 132 -30.5zM453 125q49 53 49 134q0 80 -47 131.5t-133 51.5q-48 0 -88 -16t-69 -41v-267q28 -20 67.5 -33t82.5 -13
q89 0 138 53z" />
    <glyph glyph-name="c" unicode="c" horiz-adv-x="553" 
d="M417.5 517.5q33.5 -6.5 82.5 -24.5v-89q-53 20 -90 28t-73 8q-85 0 -141.5 -48t-56.5 -138q0 -48 23.5 -89.5t68.5 -67t106 -25.5q46 0 76 6t76 22l19 6v-89q-53 -16 -88.5 -22.5t-90.5 -6.5q-79 0 -143.5 32t-102.5 92.5t-38 143.5t37.5 143.5t102 92.5t142.5 32
q57 0 90.5 -6.5z" />
    <glyph glyph-name="d" unicode="d" horiz-adv-x="642" 
d="M567 0h-65l-10 38q-80 -50 -174 -50q-75 0 -137 30.5t-99 91t-37 144.5q0 83 37 144t100 93.5t138 32.5q93 0 157 -40v207h90v-691zM165.5 154q25.5 -41 68.5 -62t94 -21q79 0 149 47v278q-64 46 -146 46q-51 0 -94.5 -21t-70 -63.5t-26.5 -103.5q0 -59 25.5 -100z" />
    <glyph glyph-name="e" unicode="e" horiz-adv-x="584" 
d="M135 223q8 -89 63.5 -120t125.5 -31q52 0 90.5 8t112.5 30v-87q-40 -14 -96.5 -24.5t-110.5 -10.5q-75 0 -137 28t-100 87.5t-38 149.5q0 93 36.5 154t96.5 89t132 28q106 0 166.5 -66t60.5 -182v-53h-402zM408.5 401q-34.5 39 -100.5 39t-114.5 -35.5t-54.5 -104.5h306
q-2 62 -36.5 101z" />
    <glyph glyph-name="f" unicode="f" horiz-adv-x="338" 
d="M354 710v-79q-47 12 -89 12q-40 0 -61 -17.5t-21 -58.5v-54h171v-77h-171v-436h-90v436h-98v77h98v55q0 87 47.5 121t128.5 34q28 0 85 -13z" />
    <glyph glyph-name="g" unicode="g" horiz-adv-x="642" 
d="M567 20q0 -232 -263 -232q-57 0 -109.5 11t-111.5 35v89q62 -25 112.5 -38t105.5 -13q72 0 124 28.5t52 98.5v28q-75 -39 -159 -39q-75 0 -137 30t-99 90t-37 144t37 145.5t100 94t138 32.5q46 0 92.5 -13.5t78.5 -37.5l9 38h67v-491zM477 116v278q-32 24 -69.5 36
t-76.5 12q-51 0 -94.5 -21t-70 -64t-26.5 -105q0 -59 25.5 -99.5t68.5 -61t94 -20.5q80 0 149 45z" />
    <glyph glyph-name="h" unicode="h" horiz-adv-x="645" 
d="M520 480q50 -44 50 -156v-324h-90v308q0 48 -11 75.5t-39.5 41t-82.5 13.5q-48 0 -98.5 -19.5t-83.5 -44.5v-374h-90v691h90v-230q37 24 92.5 43.5t109.5 19.5q103 0 153 -44z" />
    <glyph glyph-name="i" unicode="i" 
d="M69 588v92h102v-92h-102zM75 0v513h90v-513h-90z" />
    <glyph glyph-name="j" unicode="j" horiz-adv-x="229" 
d="M58 588v92h102v-92h-102zM106 -178q-47 -34 -127 -34q-28 0 -85 13v79q47 -12 89 -12q40 0 60 17.5t20 58.5v569h90v-570q0 -87 -47 -121z" />
    <glyph glyph-name="k" unicode="k" horiz-adv-x="564" 
d="M75 0v691h90v-691h-90zM403.5 390.5q-62.5 -56.5 -112.5 -117.5q59 -48 154.5 -145.5t118.5 -127.5h-127q-56 65 -126.5 138t-132.5 128q44 56 104.5 121.5t129.5 125.5h137q-83 -66 -145.5 -122.5z" />
    <glyph glyph-name="l" unicode="l" 
d="M75 0v691h90v-691h-90z" />
    <glyph glyph-name="m" unicode="m" horiz-adv-x="978" 
d="M857.5 480q45.5 -44 45.5 -156v-324h-90v309q0 49 -10.5 76.5t-35.5 40t-72 12.5q-80 0 -164 -63q3 -24 3 -51v-324h-90v309q0 49 -10.5 76.5t-35.5 40t-71 12.5q-45 0 -86.5 -18t-75.5 -45v-375h-90v513h66l16 -57q34 25 87.5 46.5t102.5 21.5q66 0 106 -19.5t59 -57.5
q38 29 94.5 53t108.5 24q97 0 142.5 -44z" />
    <glyph glyph-name="n" unicode="n" horiz-adv-x="645" 
d="M520 480q50 -44 50 -156v-324h-90v308q0 48 -11 75.5t-39.5 41t-82.5 13.5q-48 0 -99.5 -19.5t-82.5 -44.5v-374h-90v513h66l15 -59q33 25 92.5 47.5t118.5 22.5q103 0 153 -44z" />
    <glyph glyph-name="o" unicode="o" horiz-adv-x="640" 
d="M457.5 493q62.5 -31 100 -92t37.5 -146q0 -87 -37.5 -147t-100.5 -90t-138 -30t-137 30t-99.5 90.5t-37.5 146.5q0 85 37.5 146t100 92t137.5 31t137.5 -31zM227 417.5q-41 -22.5 -64.5 -64.5t-23.5 -98q0 -78 46.5 -130t135.5 -52q87 0 133.5 52.5t46.5 129.5
q0 56 -23.5 98t-64.5 64.5t-93 22.5t-93 -22.5z" />
    <glyph glyph-name="p" unicode="p" horiz-adv-x="642" 
d="M471 493q59 -31 92.5 -90t33.5 -141q0 -87 -38 -149t-100 -93.5t-132 -31.5q-89 0 -162 42v-230h-90v713h66l13 -48q32 24 80.5 41.5t104.5 17.5q73 0 132 -31zM453 125q49 53 49 134q0 79 -47 131t-133 52q-48 0 -87.5 -16.5t-69.5 -41.5v-266q28 -20 67.5 -33t82.5 -13
q89 0 138 53z" />
    <glyph glyph-name="q" unicode="q" horiz-adv-x="642" 
d="M567 -200h-90v228q-77 -40 -159 -40q-75 0 -137 30.5t-99 91t-37 144.5q0 83 37 144t100 93.5t138 32.5q46 0 92.5 -13t78.5 -36l9 38h67v-713zM477 117v279q-64 46 -146 46q-51 0 -94.5 -21t-70 -63.5t-26.5 -103.5q0 -59 25.5 -100t68.5 -62t94 -21q78 0 149 46z" />
    <glyph glyph-name="r" unicode="r" horiz-adv-x="402" 
d="M254 416.5q-56 -16.5 -89 -42.5v-374h-90v513h66l16 -57q56 35 107 51t115 17v-90q-69 -1 -125 -17.5z" />
    <glyph glyph-name="s" unicode="s" horiz-adv-x="513" 
d="M452 497v-87q-42 14 -91.5 22.5t-96.5 8.5q-58 0 -92.5 -11.5t-34.5 -51.5q0 -41 74 -58l114 -26q72 -17 110 -48.5t38 -102.5q0 -86 -62.5 -120.5t-176.5 -34.5q-44 0 -97.5 8t-96.5 20v87q38 -12 91.5 -22t103.5 -10q66 0 106.5 15t40.5 58q0 26 -18.5 40t-52.5 23
l-150 36q-55 13 -85.5 49t-30.5 82q0 88 61.5 119t155.5 31q97 0 190 -27z" />
    <glyph glyph-name="t" unicode="t" horiz-adv-x="399" 
d="M354 436h-171v-292q0 -41 21 -58.5t61 -17.5q16 0 46 4.5t58 13.5v-80q-30 -9 -57.5 -13.5t-42.5 -4.5q-81 0 -128.5 34t-47.5 121v293h-98v77h98l12 131h78v-131h171v-77z" />
    <glyph glyph-name="u" unicode="u" horiz-adv-x="639" 
d="M564 0h-66l-13 47q-47 -28 -105.5 -43.5t-114.5 -15.5q-83 0 -136.5 48.5t-53.5 149.5v327h90v-303q0 -79 33.5 -108.5t98.5 -29.5q46 0 93 13t84 38v390h90v-513z" />
    <glyph glyph-name="v" unicode="v" horiz-adv-x="539" 
d="M304 0h-72q-146 259 -242 513h103q79 -216 179 -397q101 184 177 397h100q-98 -254 -245 -513z" />
    <glyph glyph-name="w" unicode="w" horiz-adv-x="858" 
d="M772.5 246.5q-52.5 -135.5 -108.5 -246.5h-81q-37 78 -83.5 195t-67.5 186q-22 -69 -68 -176.5t-93 -204.5h-78q-58 119 -110.5 255t-87.5 258h98q75 -246 142 -399q46 92 96 221.5t62 177.5h92q14 -54 55.5 -174t86.5 -224q34 72 71.5 177.5t71.5 220.5h93
q-38 -131 -90.5 -266.5z" />
    <glyph glyph-name="x" unicode="x" horiz-adv-x="523" 
d="M524 0h-117l-141 188l-150 -188h-119l208 252l-210 261h113l156 -198l150 198h114l-205 -261z" />
    <glyph glyph-name="y" unicode="y" horiz-adv-x="541" 
d="M405.5 172q-87.5 -183 -197.5 -372h-104l48 85q44 76 72 128q-142 256 -234 500h100q73 -201 185 -404q92 182 171 404h105q-58 -158 -145.5 -341z" />
    <glyph glyph-name="z" unicode="z" horiz-adv-x="533" 
d="M155 77h338v-77h-453v80l335 356h-321v77h434v-80z" />
    <glyph glyph-name="braceleft" unicode="{" horiz-adv-x="341" 
d="M61 240.5q24 -5.5 44 -19.5q19 -15 28.5 -43.5t9.5 -77.5v-34q0 -72 18 -116t64.5 -68t130.5 -28v66q-55 3 -82 16t-36.5 41.5t-9.5 84.5v38q0 79 -19 116q-27 54 -108 65q40 5 68 21.5t41 43.5q18 35 18 115v36q0 56 9.5 85t36.5 42.5t82 17.5v66q-82 -3 -128.5 -27
t-65.5 -68.5t-19 -116.5v-36q0 -48 -9.5 -76.5t-28.5 -43.5q-20 -15 -43.5 -19.5t-56.5 -4.5v-69q32 -1 56 -6.5z" />
    <glyph glyph-name="bar" unicode="|" horiz-adv-x="254" 
d="M80 -250v1000h94v-1000h-94z" />
    <glyph glyph-name="braceright" unicode="}" horiz-adv-x="341" 
d="M279.5 320.5q-23.5 4.5 -43.5 19.5q-19 15 -28.5 43.5t-9.5 76.5v36q0 72 -19 116.5t-65.5 68.5t-128.5 27v-66q55 -4 82 -17.5t36.5 -42.5t9.5 -85v-36q0 -80 18 -115q13 -27 41 -43.5t68 -21.5q-81 -11 -108 -65q-19 -37 -19 -116v-38q0 -56 -9.5 -84.5t-36.5 -41.5
t-82 -16v-66q84 4 130.5 28t64.5 68t18 116v34q0 49 9.5 77.5t28.5 43.5q20 14 44 19.5t56 6.5v69q-33 0 -56.5 4.5z" />
    <glyph glyph-name="asciitilde" unicode="~" horiz-adv-x="511" 
d="M435.5 293.5q-35.5 -32.5 -87.5 -32.5q-33 0 -86 19q-29 9 -47 13.5t-39 4.5q-24 0 -41 -9.5t-18 -27.5h-77q0 51 35.5 83.5t87.5 32.5q21 0 39 -4.5t47 -13.5q53 -19 86 -19q24 0 41 9.5t18 27.5h77q0 -51 -35.5 -83.5z" />
    <glyph glyph-name="Aacute" unicode="&#xc1;" horiz-adv-x="663" 
d="M510 168h-354q-40 -101 -60 -168h-101q45 136 101 271t105.5 236.5t74.5 142.5h111q20 -32 66 -124t104.5 -230.5t110.5 -295.5h-98q-31 94 -60 168zM333 565q-65 -122 -143 -313h287q-79 197 -144 313zM289 710l74 145h106l-101 -145h-79z" />
    <glyph glyph-name="Acircumflex" unicode="&#xc2;" horiz-adv-x="663" 
d="M510 168h-354q-40 -101 -60 -168h-101q45 136 101 271t105.5 236.5t74.5 142.5h111q20 -32 66 -124t104.5 -230.5t110.5 -295.5h-98q-31 94 -60 168zM333 565q-65 -122 -143 -313h287q-79 197 -144 313zM407 710l-75 86l-75 -86h-81l101 145h110l101 -145h-81z" />
    <glyph glyph-name="Adieresis" unicode="&#xc4;" horiz-adv-x="663" 
d="M510 168h-354q-40 -101 -60 -168h-101q45 136 101 271t105.5 236.5t74.5 142.5h111q20 -32 66 -124t104.5 -230.5t110.5 -295.5h-98q-31 94 -60 168zM333 565q-65 -122 -143 -313h287q-79 197 -144 313zM183 707v98h100v-98h-100zM381 707v98h100v-98h-100z" />
    <glyph glyph-name="Agrave" unicode="&#xc0;" horiz-adv-x="663" 
d="M510 168h-354q-40 -101 -60 -168h-101q45 136 101 271t105.5 236.5t74.5 142.5h111q20 -32 66 -124t104.5 -230.5t110.5 -295.5h-98q-31 94 -60 168zM333 565q-65 -122 -143 -313h287q-79 197 -144 313zM300 710l-101 145h106l74 -145h-79z" />
    <glyph glyph-name="Aring" unicode="&#xc5;" horiz-adv-x="663" 
d="M510 168h-354q-40 -101 -60 -168h-101q45 136 101 271t105.5 236.5t74.5 142.5h111q20 -32 66 -124t104.5 -230.5t110.5 -295.5h-98q-31 94 -60 168zM333 565q-65 -122 -143 -313h287q-79 197 -144 313zM257.5 734.5q-26.5 23.5 -26.5 62.5t26.5 62.5t74.5 23.5
t74.5 -23.5t26.5 -62.5t-26.5 -62.5t-74.5 -23.5t-74.5 23.5zM295 827.5q-15 -9.5 -15 -30.5t15 -30.5t37 -9.5t37 9.5t15 30.5t-15 30.5t-37 9.5t-37 -9.5z" />
    <glyph glyph-name="Atilde" unicode="&#xc3;" horiz-adv-x="663" 
d="M510 168h-354q-40 -101 -60 -168h-101q45 136 101 271t105.5 236.5t74.5 142.5h111q20 -32 66 -124t104.5 -230.5t110.5 -295.5h-98q-31 94 -60 168zM333 565q-65 -122 -143 -313h287q-79 197 -144 313zM450 763.5q-24 -26.5 -64 -26.5q-20 0 -62 14q-35 13 -52 13
q-16 0 -23 -7t-11 -23h-60q6 44 30 70.5t64 26.5q24 0 62 -14q33 -13 52 -13q17 0 24.5 7t9.5 23h60q-6 -44 -30 -70.5z" />
    <glyph glyph-name="AE" unicode="&#xc6;" horiz-adv-x="955" 
d="M568 377h300v-85h-300v-206h327v-86h-421v179h-275q-42 -68 -104 -179h-110q119 209 237.5 378.5t208.5 271.5h464v-86h-327v-187zM473 568q-117 -140 -221 -303h221v303z" />
    <glyph glyph-name="Ccedilla" unicode="&#xc7;" horiz-adv-x="704" 
d="M429 -12l-8 -27q37 -4 56.5 -23.5t19.5 -51.5q0 -93 -112 -93q-42 0 -88 13v67q52 -16 89 -16q41 0 41 30q0 11 -11.5 18t-33.5 7t-40 -3l27 83q-86 11 -158 49t-116.5 108t-44.5 170q0 113 52.5 190t140 115t193.5 38q54 0 113.5 -12t99.5 -30v-98q-101 52 -215 52
q-81 0 -145.5 -28.5t-102 -86t-37.5 -139.5q0 -84 42.5 -138.5t109 -80t140.5 -25.5q61 0 104 9t109 35v-92q-96 -40 -220 -40h-5z" />
    <glyph glyph-name="Eth" unicode="&#xd0;" horiz-adv-x="707" 
d="M558 572q100 -78 100 -248q0 -110 -50 -183t-132.5 -107t-182.5 -34h-213v293h-80v86h80v271h221q157 0 257 -78zM484.5 148.5q70.5 62.5 70.5 176.5t-66.5 176.5t-206.5 62.5h-108v-185h206v-86h-206v-207h99q141 0 211.5 62.5z" />
    <glyph glyph-name="Eacute" unicode="&#xc9;" horiz-adv-x="599" 
d="M174 564v-187h336v-85h-336v-206h365v-86h-459v650h459v-86h-365zM267 710l74 145h106l-101 -145h-79z" />
    <glyph glyph-name="Ecircumflex" unicode="&#xca;" horiz-adv-x="599" 
d="M174 564v-187h336v-85h-336v-206h365v-86h-459v650h459v-86h-365zM385 710l-75 86l-75 -86h-81l101 145h110l101 -145h-81z" />
    <glyph glyph-name="Edieresis" unicode="&#xcb;" horiz-adv-x="599" 
d="M174 564v-187h336v-85h-336v-206h365v-86h-459v650h459v-86h-365zM161 707v98h100v-98h-100zM359 707v98h100v-98h-100z" />
    <glyph glyph-name="Egrave" unicode="&#xc8;" horiz-adv-x="599" 
d="M174 564v-187h336v-85h-336v-206h365v-86h-459v650h459v-86h-365zM278 710l-101 145h106l74 -145h-79z" />
    <glyph glyph-name="Iacute" unicode="&#xcd;" horiz-adv-x="254" 
d="M80 0v650h94v-650h-94zM84 710l74 145h106l-101 -145h-79z" />
    <glyph glyph-name="Icircumflex" unicode="&#xce;" horiz-adv-x="254" 
d="M80 0v650h94v-650h-94zM202 710l-75 86l-75 -86h-81l101 145h110l101 -145h-81z" />
    <glyph glyph-name="Idieresis" unicode="&#xcf;" horiz-adv-x="254" 
d="M80 0v650h94v-650h-94zM-22 707v98h100v-98h-100zM176 707v98h100v-98h-100z" />
    <glyph glyph-name="Igrave" unicode="&#xcc;" horiz-adv-x="254" 
d="M80 0v650h94v-650h-94zM95 710l-101 145h106l74 -145h-79z" />
    <glyph glyph-name="Ntilde" unicode="&#xd1;" horiz-adv-x="726" 
d="M567 0l-394 524v-524h-93v650h108l365 -486v486h93v-650h-79zM488 763.5q-24 -26.5 -64 -26.5q-20 0 -62 14q-35 13 -52 13q-16 0 -23 -7t-11 -23h-60q6 44 30 70.5t64 26.5q24 0 62 -14q33 -13 52 -13q17 0 24.5 7t9.5 23h60q-6 -44 -30 -70.5z" />
    <glyph glyph-name="Oacute" unicode="&#xd3;" horiz-adv-x="792" 
d="M585 620.5q77 -41.5 117 -117.5t40 -177q0 -102 -42.5 -178.5t-120 -118t-178.5 -41.5q-107 0 -186 42t-122 118.5t-43 177.5q0 102 42.5 178t122 117t185.5 41q108 0 185 -41.5zM217.5 510.5q-68.5 -63.5 -68.5 -184.5q0 -77 31.5 -133t88.5 -85.5t132 -29.5
q71 0 126 29.5t86.5 85.5t31.5 133q0 120 -67 184t-178 64q-114 0 -182.5 -63.5zM348 710l74 145h106l-101 -145h-79z" />
    <glyph glyph-name="Ocircumflex" unicode="&#xd4;" horiz-adv-x="792" 
d="M585 620.5q77 -41.5 117 -117.5t40 -177q0 -102 -42.5 -178.5t-120 -118t-178.5 -41.5q-107 0 -186 42t-122 118.5t-43 177.5q0 102 42.5 178t122 117t185.5 41q108 0 185 -41.5zM217.5 510.5q-68.5 -63.5 -68.5 -184.5q0 -77 31.5 -133t88.5 -85.5t132 -29.5
q71 0 126 29.5t86.5 85.5t31.5 133q0 120 -67 184t-178 64q-114 0 -182.5 -63.5zM466 710l-75 86l-75 -86h-81l101 145h110l101 -145h-81z" />
    <glyph glyph-name="Odieresis" unicode="&#xd6;" horiz-adv-x="792" 
d="M585 620.5q77 -41.5 117 -117.5t40 -177q0 -102 -42.5 -178.5t-120 -118t-178.5 -41.5q-107 0 -186 42t-122 118.5t-43 177.5q0 102 42.5 178t122 117t185.5 41q108 0 185 -41.5zM217.5 510.5q-68.5 -63.5 -68.5 -184.5q0 -77 31.5 -133t88.5 -85.5t132 -29.5
q71 0 126 29.5t86.5 85.5t31.5 133q0 120 -67 184t-178 64q-114 0 -182.5 -63.5zM242 707v98h100v-98h-100zM440 707v98h100v-98h-100z" />
    <glyph glyph-name="Ograve" unicode="&#xd2;" horiz-adv-x="792" 
d="M585 620.5q77 -41.5 117 -117.5t40 -177q0 -102 -42.5 -178.5t-120 -118t-178.5 -41.5q-107 0 -186 42t-122 118.5t-43 177.5q0 102 42.5 178t122 117t185.5 41q108 0 185 -41.5zM217.5 510.5q-68.5 -63.5 -68.5 -184.5q0 -77 31.5 -133t88.5 -85.5t132 -29.5
q71 0 126 29.5t86.5 85.5t31.5 133q0 120 -67 184t-178 64q-114 0 -182.5 -63.5zM359 710l-101 145h106l74 -145h-79z" />
    <glyph glyph-name="Oslash" unicode="&#xd8;" horiz-adv-x="792" 
d="M720 461.5q22 -61.5 22 -135.5q0 -102 -42.5 -178.5t-120 -118t-178.5 -41.5q-112 0 -193 46l-52 -62l-62 52l49 58q-45 45 -69 107t-24 137q0 102 42.5 178t122 117t185.5 41q112 0 192 -46l44 53l62 -52l-42 -50q42 -44 64 -105.5zM206 157l325 387q-55 30 -131 30
q-114 0 -182.5 -63.5t-68.5 -184.5q0 -102 57 -169zM527 107.5q55 29.5 86.5 85.5t31.5 133q0 104 -51 167l-324 -386q56 -29 131 -29q71 0 126 29.5z" />
    <glyph glyph-name="Otilde" unicode="&#xd5;" horiz-adv-x="792" 
d="M585 620.5q77 -41.5 117 -117.5t40 -177q0 -102 -42.5 -178.5t-120 -118t-178.5 -41.5q-107 0 -186 42t-122 118.5t-43 177.5q0 102 42.5 178t122 117t185.5 41q108 0 185 -41.5zM217.5 510.5q-68.5 -63.5 -68.5 -184.5q0 -77 31.5 -133t88.5 -85.5t132 -29.5
q71 0 126 29.5t86.5 85.5t31.5 133q0 120 -67 184t-178 64q-114 0 -182.5 -63.5zM509 763.5q-24 -26.5 -64 -26.5q-20 0 -62 14q-35 13 -52 13q-16 0 -23 -7t-11 -23h-60q6 44 30 70.5t64 26.5q24 0 62 -14q33 -13 52 -13q17 0 24.5 7t9.5 23h60q-6 -44 -30 -70.5z" />
    <glyph glyph-name="OE" unicode="&#x152;" horiz-adv-x="1010" 
d="M585 377h336v-85h-336v-206h365v-86h-449q-49 -12 -110 -12q-106 0 -183 41.5t-117.5 117.5t-40.5 179q0 102 39 177.5t115.5 117t186.5 41.5q61 0 109 -12h450v-86h-365v-187zM178 191q31 -57 86.5 -87t126.5 -30q59 0 100 12v475q-40 15 -100 15q-113 0 -178.5 -63.5
t-65.5 -186.5q0 -78 31 -135z" />
    <glyph glyph-name="Thorn" unicode="&#xde;" horiz-adv-x="633" 
d="M350 544q51 0 106 -18t96 -67t41 -134t-41 -134t-96 -67t-106 -18h-176v-106h-94v650h94v-106h176zM174 192h164q66 0 110.5 31t44.5 101q0 71 -44 102.5t-111 31.5h-164v-266z" />
    <glyph glyph-name="Scaron" unicode="&#x160;" horiz-adv-x="605" 
d="M527 628v-90q-67 21 -113 30t-94 9q-73 0 -122 -21.5t-49 -71.5q0 -64 95 -90l165 -47q66 -18 106 -59.5t40 -110.5q0 -91 -72 -140t-204 -49q-116 0 -234 44v95l27 -9q67 -22 111.5 -33t95.5 -11q82 0 130.5 27t48.5 73q0 69 -97 95l-153 42q-154 41 -154 173
q0 90 74.5 134t191.5 44q103 0 207 -34zM246 710l-101 145h81l75 -86l75 86h81l-101 -145h-110z" />
    <glyph glyph-name="Uacute" unicode="&#xda;" horiz-adv-x="718" 
d="M573 68q-65 -80 -218 -80q-151 0 -215.5 80t-64.5 211v371h94v-372q0 -100 47 -151t139 -51q94 0 141.5 51t47.5 151v372h94v-371q0 -131 -65 -211zM306 710l74 145h106l-101 -145h-79z" />
    <glyph glyph-name="Ucircumflex" unicode="&#xdb;" horiz-adv-x="718" 
d="M573 68q-65 -80 -218 -80q-151 0 -215.5 80t-64.5 211v371h94v-372q0 -100 47 -151t139 -51q94 0 141.5 51t47.5 151v372h94v-371q0 -131 -65 -211zM424 710l-75 86l-75 -86h-81l101 145h110l101 -145h-81z" />
    <glyph glyph-name="Udieresis" unicode="&#xdc;" horiz-adv-x="718" 
d="M573 68q-65 -80 -218 -80q-151 0 -215.5 80t-64.5 211v371h94v-372q0 -100 47 -151t139 -51q94 0 141.5 51t47.5 151v372h94v-371q0 -131 -65 -211zM200 707v98h100v-98h-100zM398 707v98h100v-98h-100z" />
    <glyph glyph-name="Ugrave" unicode="&#xd9;" horiz-adv-x="718" 
d="M573 68q-65 -80 -218 -80q-151 0 -215.5 80t-64.5 211v371h94v-372q0 -100 47 -151t139 -51q94 0 141.5 51t47.5 151v372h94v-371q0 -131 -65 -211zM317 710l-101 145h106l74 -145h-79z" />
    <glyph glyph-name="Yacute" unicode="&#xdd;" horiz-adv-x="606" 
d="M468 400q-80 -129 -118 -180v-220h-94v220q-38 50 -117 178t-144 252h110q52 -103 96.5 -179.5t101.5 -164.5q50 77 95 155t100 189h113q-63 -121 -143 -250zM257 710l74 145h106l-101 -145h-79z" />
    <glyph glyph-name="Ydieresis" unicode="&#x178;" horiz-adv-x="606" 
d="M468 400q-80 -129 -118 -180v-220h-94v220q-38 50 -117 178t-144 252h110q52 -103 96.5 -179.5t101.5 -164.5q50 77 95 155t100 189h113q-63 -121 -143 -250zM151 707v98h100v-98h-100zM349 707v98h100v-98h-100z" />
    <glyph glyph-name="Zcaron" unicode="&#x17d;" horiz-adv-x="599" 
d="M166 86h391v-86h-517v83l394 481h-394v86h519v-83zM244 710l-101 145h81l75 -86l75 86h81l-101 -145h-110z" />
    <glyph glyph-name="aacute" unicode="&#xe1;" horiz-adv-x="603" 
d="M469.5 473.5q58.5 -50.5 58.5 -170.5v-303h-68l-12 47q-37 -25 -87 -42t-105 -17q-88 0 -145.5 44.5t-57.5 126.5q0 86 62 126.5t154 40.5q45 0 90 -9.5t79 -26.5v30q0 70 -43 95t-119 25q-48 0 -90.5 -8t-100.5 -27v89q100 30 201 30q125 0 183.5 -50.5zM183.5 91
q35.5 -21 88.5 -21q84 0 166 52v93q-36 19 -77.5 27.5t-80.5 8.5q-60 0 -96 -22t-36 -69q0 -48 35.5 -69zM260 591l74 145h106l-101 -145h-79z" />
    <glyph glyph-name="acircumflex" unicode="&#xe2;" horiz-adv-x="603" 
d="M469.5 473.5q58.5 -50.5 58.5 -170.5v-303h-68l-12 47q-37 -25 -87 -42t-105 -17q-88 0 -145.5 44.5t-57.5 126.5q0 86 62 126.5t154 40.5q45 0 90 -9.5t79 -26.5v30q0 70 -43 95t-119 25q-48 0 -90.5 -8t-100.5 -27v89q100 30 201 30q125 0 183.5 -50.5zM183.5 91
q35.5 -21 88.5 -21q84 0 166 52v93q-36 19 -77.5 27.5t-80.5 8.5q-60 0 -96 -22t-36 -69q0 -48 35.5 -69zM225 591h-81l101 145h110l101 -145h-81l-75 86z" />
    <glyph glyph-name="adieresis" unicode="&#xe4;" horiz-adv-x="603" 
d="M469.5 473.5q58.5 -50.5 58.5 -170.5v-303h-68l-12 47q-37 -25 -87 -42t-105 -17q-88 0 -145.5 44.5t-57.5 126.5q0 86 62 126.5t154 40.5q45 0 90 -9.5t79 -26.5v30q0 70 -43 95t-119 25q-48 0 -90.5 -8t-100.5 -27v89q100 30 201 30q125 0 183.5 -50.5zM183.5 91
q35.5 -21 88.5 -21q84 0 166 52v93q-36 19 -77.5 27.5t-80.5 8.5q-60 0 -96 -22t-36 -69q0 -48 35.5 -69zM152 588v96h98v-96h-98zM350 588v96h98v-96h-98z" />
    <glyph glyph-name="agrave" unicode="&#xe0;" horiz-adv-x="603" 
d="M469.5 473.5q58.5 -50.5 58.5 -170.5v-303h-68l-12 47q-37 -25 -87 -42t-105 -17q-88 0 -145.5 44.5t-57.5 126.5q0 86 62 126.5t154 40.5q45 0 90 -9.5t79 -26.5v30q0 70 -43 95t-119 25q-48 0 -90.5 -8t-100.5 -27v89q100 30 201 30q125 0 183.5 -50.5zM183.5 91
q35.5 -21 88.5 -21q84 0 166 52v93q-36 19 -77.5 27.5t-80.5 8.5q-60 0 -96 -22t-36 -69q0 -48 35.5 -69zM265 591l-101 145h106l74 -145h-79z" />
    <glyph glyph-name="aring" unicode="&#xe5;" horiz-adv-x="603" 
d="M469.5 473.5q58.5 -50.5 58.5 -170.5v-303h-68l-12 47q-37 -25 -87 -42t-105 -17q-88 0 -145.5 44.5t-57.5 126.5q0 86 62 126.5t154 40.5q45 0 90 -9.5t79 -26.5v30q0 70 -43 95t-119 25q-48 0 -90.5 -8t-100.5 -27v89q100 30 201 30q125 0 183.5 -50.5zM183.5 91
q35.5 -21 88.5 -21q84 0 166 52v93q-36 19 -77.5 27.5t-80.5 8.5q-60 0 -96 -22t-36 -69q0 -48 35.5 -69zM222.5 603.5q-26.5 23.5 -26.5 62.5t26.5 62.5t74.5 23.5t74.5 -23.5t26.5 -62.5t-26.5 -62.5t-74.5 -23.5t-74.5 23.5zM260 696.5q-15 -9.5 -15 -30.5t15 -30.5
t37 -9.5t37 9.5t15 30.5t-15 30.5t-37 9.5t-37 -9.5z" />
    <glyph glyph-name="atilde" unicode="&#xe3;" horiz-adv-x="603" 
d="M469.5 473.5q58.5 -50.5 58.5 -170.5v-303h-68l-12 47q-37 -25 -87 -42t-105 -17q-88 0 -145.5 44.5t-57.5 126.5q0 86 62 126.5t154 40.5q45 0 90 -9.5t79 -26.5v30q0 70 -43 95t-119 25q-48 0 -90.5 -8t-100.5 -27v89q100 30 201 30q125 0 183.5 -50.5zM183.5 91
q35.5 -21 88.5 -21q84 0 166 52v93q-36 19 -77.5 27.5t-80.5 8.5q-60 0 -96 -22t-36 -69q0 -48 35.5 -69zM421 643.5q-24 -26.5 -64 -26.5q-20 0 -62 14q-35 13 -52 13q-16 0 -23 -7t-11 -23h-60q6 44 30 70.5t64 26.5q24 0 62 -14q33 -13 52 -13q17 0 24.5 7t9.5 23h60
q-6 -44 -30 -70.5z" />
    <glyph glyph-name="ae" unicode="&#xe6;" horiz-adv-x="977" 
d="M869.5 458q60.5 -66 60.5 -182v-53h-402q8 -89 63.5 -120t125.5 -31q52 0 90.5 8t112.5 30v-87q-40 -14 -96.5 -24.5t-110.5 -10.5q-66 0 -122.5 21.5t-94.5 65.5q-74 -48 -127 -67.5t-113 -19.5q-88 0 -145.5 44.5t-57.5 126.5q0 86 62 126.5t154 40.5q45 0 90 -9.5
t79 -26.5v30q0 70 -43 95t-119 25q-48 0 -90.5 -8t-100.5 -27v89q100 30 201 30q80 0 132 -20.5t78 -65.5q37 43 91 64.5t116 21.5q106 0 166.5 -66zM586.5 404.5q-48.5 -35.5 -54.5 -103.5h306q-2 62 -36.5 100.5t-100.5 38.5t-114.5 -35.5zM184 229q-36 -22 -36 -69
q0 -48 35.5 -69t88.5 -21q57 0 104.5 20t82.5 45q-15 38 -19 79q-36 18 -80.5 27.5t-79.5 9.5q-60 0 -96 -22z" />
    <glyph glyph-name="ccedilla" unicode="&#xe7;" horiz-adv-x="553" 
d="M427 -4.5q-33 -6.5 -81 -7.5l-8 -27q37 -4 56.5 -23.5t19.5 -51.5q0 -93 -112 -93q-42 0 -88 13v67q52 -16 89 -16q41 0 41 30q0 11 -11.5 18t-33.5 7t-40 -3l26 82q-68 8 -122.5 42t-86 91t-31.5 132q0 83 37.5 143.5t102 92.5t142.5 32q57 0 90.5 -6.5t82.5 -24.5v-89
q-53 20 -90 28t-73 8q-85 0 -141.5 -48t-56.5 -138q0 -48 23.5 -89.5t68.5 -67t106 -25.5q46 0 76 6t76 22l19 6v-89q-48 -15 -81 -21.5z" />
    <glyph glyph-name="eth" unicode="&#xf0;" horiz-adv-x="640" 
d="M595 295q0 -105 -37.5 -174t-99.5 -101t-139 -32q-74 0 -136.5 29t-100 85t-37.5 133q0 83 34 139t90 83t122 27q54 0 101.5 -14t94.5 -45q-22 96 -89 150l-71 -50l-37 54l46 32q-50 22 -125 36l24 76q107 -22 177 -59l85 59l37 -54l-64 -45q125 -103 125 -329z
M456 131.5q45 58.5 45 163.5l-1 32q-51 41 -96 57t-104 16q-43 0 -79.5 -19t-59 -56t-22.5 -90q0 -40 20.5 -77.5t61.5 -61t100 -23.5q90 0 135 58.5z" />
    <glyph glyph-name="eacute" unicode="&#xe9;" horiz-adv-x="584" 
d="M135 223q8 -89 63.5 -120t125.5 -31q52 0 90.5 8t112.5 30v-87q-40 -14 -96.5 -24.5t-110.5 -10.5q-75 0 -137 28t-100 87.5t-38 149.5q0 93 36.5 154t96.5 89t132 28q106 0 166.5 -66t60.5 -182v-53h-402zM408.5 401q-34.5 39 -100.5 39t-114.5 -35.5t-54.5 -104.5h306
q-2 62 -36.5 101zM262 591l74 145h106l-101 -145h-79z" />
    <glyph glyph-name="ecircumflex" unicode="&#xea;" horiz-adv-x="584" 
d="M135 223q8 -89 63.5 -120t125.5 -31q52 0 90.5 8t112.5 30v-87q-40 -14 -96.5 -24.5t-110.5 -10.5q-75 0 -137 28t-100 87.5t-38 149.5q0 93 36.5 154t96.5 89t132 28q106 0 166.5 -66t60.5 -182v-53h-402zM408.5 401q-34.5 39 -100.5 39t-114.5 -35.5t-54.5 -104.5h306
q-2 62 -36.5 101zM227 591h-81l101 145h110l101 -145h-81l-75 86z" />
    <glyph glyph-name="edieresis" unicode="&#xeb;" horiz-adv-x="584" 
d="M135 223q8 -89 63.5 -120t125.5 -31q52 0 90.5 8t112.5 30v-87q-40 -14 -96.5 -24.5t-110.5 -10.5q-75 0 -137 28t-100 87.5t-38 149.5q0 93 36.5 154t96.5 89t132 28q106 0 166.5 -66t60.5 -182v-53h-402zM408.5 401q-34.5 39 -100.5 39t-114.5 -35.5t-54.5 -104.5h306
q-2 62 -36.5 101zM154 588v96h98v-96h-98zM352 588v96h98v-96h-98z" />
    <glyph glyph-name="egrave" unicode="&#xe8;" horiz-adv-x="584" 
d="M135 223q8 -89 63.5 -120t125.5 -31q52 0 90.5 8t112.5 30v-87q-40 -14 -96.5 -24.5t-110.5 -10.5q-75 0 -137 28t-100 87.5t-38 149.5q0 93 36.5 154t96.5 89t132 28q106 0 166.5 -66t60.5 -182v-53h-402zM408.5 401q-34.5 39 -100.5 39t-114.5 -35.5t-54.5 -104.5h306
q-2 62 -36.5 101zM267 591l-101 145h106l74 -145h-79z" />
    <glyph glyph-name="dotlessi" unicode="&#x131;" 
d="M75 0v513h90v-513h-90z" />
    <glyph glyph-name="iacute" unicode="&#xed;" 
d="M75 0v513h90v-513h-90zM80 591l74 145h106l-101 -145h-79z" />
    <glyph glyph-name="icircumflex" unicode="&#xee;" 
d="M75 0v513h90v-513h-90zM45 591h-81l101 145h110l101 -145h-81l-75 86z" />
    <glyph glyph-name="idieresis" unicode="&#xef;" 
d="M75 0v513h90v-513h-90zM-28 588v96h98v-96h-98zM170 588v96h98v-96h-98z" />
    <glyph glyph-name="igrave" unicode="&#xec;" 
d="M75 0v513h90v-513h-90zM85 591l-101 145h106l74 -145h-79z" />
    <glyph glyph-name="ntilde" unicode="&#xf1;" horiz-adv-x="645" 
d="M520 480q50 -44 50 -156v-324h-90v308q0 48 -11 75.5t-39.5 41t-82.5 13.5q-48 0 -99.5 -19.5t-82.5 -44.5v-374h-90v513h66l15 -59q33 25 92.5 47.5t118.5 22.5q103 0 153 -44zM442 643.5q-24 -26.5 -64 -26.5q-20 0 -62 14q-35 13 -52 13q-16 0 -23 -7t-11 -23h-60
q6 44 30 70.5t64 26.5q24 0 62 -14q33 -13 52 -13q17 0 24.5 7t9.5 23h60q-6 -44 -30 -70.5z" />
    <glyph glyph-name="oacute" unicode="&#xf3;" horiz-adv-x="640" 
d="M457.5 493q62.5 -31 100 -92t37.5 -146q0 -87 -37.5 -147t-100.5 -90t-138 -30t-137 30t-99.5 90.5t-37.5 146.5q0 85 37.5 146t100 92t137.5 31t137.5 -31zM227 417.5q-41 -22.5 -64.5 -64.5t-23.5 -98q0 -78 46.5 -130t135.5 -52q87 0 133.5 52.5t46.5 129.5
q0 56 -23.5 98t-64.5 64.5t-93 22.5t-93 -22.5zM280 591l74 145h106l-101 -145h-79z" />
    <glyph glyph-name="ocircumflex" unicode="&#xf4;" horiz-adv-x="640" 
d="M457.5 493q62.5 -31 100 -92t37.5 -146q0 -87 -37.5 -147t-100.5 -90t-138 -30t-137 30t-99.5 90.5t-37.5 146.5q0 85 37.5 146t100 92t137.5 31t137.5 -31zM227 417.5q-41 -22.5 -64.5 -64.5t-23.5 -98q0 -78 46.5 -130t135.5 -52q87 0 133.5 52.5t46.5 129.5
q0 56 -23.5 98t-64.5 64.5t-93 22.5t-93 -22.5zM245 591h-81l101 145h110l101 -145h-81l-75 86z" />
    <glyph glyph-name="odieresis" unicode="&#xf6;" horiz-adv-x="640" 
d="M457.5 493q62.5 -31 100 -92t37.5 -146q0 -87 -37.5 -147t-100.5 -90t-138 -30t-137 30t-99.5 90.5t-37.5 146.5q0 85 37.5 146t100 92t137.5 31t137.5 -31zM227 417.5q-41 -22.5 -64.5 -64.5t-23.5 -98q0 -78 46.5 -130t135.5 -52q87 0 133.5 52.5t46.5 129.5
q0 56 -23.5 98t-64.5 64.5t-93 22.5t-93 -22.5zM172 588v96h98v-96h-98zM370 588v96h98v-96h-98z" />
    <glyph glyph-name="ograve" unicode="&#xf2;" horiz-adv-x="640" 
d="M457.5 493q62.5 -31 100 -92t37.5 -146q0 -87 -37.5 -147t-100.5 -90t-138 -30t-137 30t-99.5 90.5t-37.5 146.5q0 85 37.5 146t100 92t137.5 31t137.5 -31zM227 417.5q-41 -22.5 -64.5 -64.5t-23.5 -98q0 -78 46.5 -130t135.5 -52q87 0 133.5 52.5t46.5 129.5
q0 56 -23.5 98t-64.5 64.5t-93 22.5t-93 -22.5zM285 591l-101 145h106l74 -145h-79z" />
    <glyph glyph-name="oslash" unicode="&#xf8;" horiz-adv-x="640" 
d="M595 255q0 -87 -37.5 -147t-100.5 -90t-138 -30q-81 0 -145 34l-40 -48l-60 47l39 47q-68 71 -68 187q0 85 37.5 146t100 92t137.5 31q81 0 146 -36l40 48l60 -47l-39 -47q68 -73 68 -187zM174 140l234 280q-38 20 -88 20q-52 0 -93 -22.5t-64.5 -64.5t-23.5 -98
q0 -68 35 -115zM454.5 125.5q46.5 52.5 46.5 129.5q0 67 -35 115l-234 -279q39 -18 89 -18q87 0 133.5 52.5z" />
    <glyph glyph-name="otilde" unicode="&#xf5;" horiz-adv-x="640" 
d="M457.5 493q62.5 -31 100 -92t37.5 -146q0 -87 -37.5 -147t-100.5 -90t-138 -30t-137 30t-99.5 90.5t-37.5 146.5q0 85 37.5 146t100 92t137.5 31t137.5 -31zM227 417.5q-41 -22.5 -64.5 -64.5t-23.5 -98q0 -78 46.5 -130t135.5 -52q87 0 133.5 52.5t46.5 129.5
q0 56 -23.5 98t-64.5 64.5t-93 22.5t-93 -22.5zM441 643.5q-24 -26.5 -64 -26.5q-20 0 -62 14q-35 13 -52 13q-16 0 -23 -7t-11 -23h-60q6 44 30 70.5t64 26.5q24 0 62 -14q33 -13 52 -13q17 0 24.5 7t9.5 23h60q-6 -44 -30 -70.5z" />
    <glyph glyph-name="oe" unicode="&#x153;" horiz-adv-x="1041" 
d="M592 223q8 -89 63.5 -120t125.5 -31q52 0 90.5 8t112.5 30v-87q-40 -14 -96.5 -24.5t-110.5 -10.5q-74 0 -135 26.5t-97 81.5q-37 -52 -96.5 -80t-129.5 -28q-75 0 -137 30t-99.5 90.5t-37.5 146.5q0 85 37.5 146t100 92t137.5 31q69 0 128 -28t96 -81q35 55 93.5 82
t129.5 27q106 0 166.5 -66t60.5 -182v-53h-402zM454.5 125.5q46.5 52.5 46.5 129.5q0 56 -23.5 98t-64.5 64.5t-93 22.5t-93 -22.5t-64.5 -64.5t-23.5 -98q0 -78 46.5 -130t135.5 -52q87 0 133.5 52.5zM865.5 401q-34.5 39 -100.5 39t-114.5 -35.5t-54.5 -104.5h306
q-2 62 -36.5 101z" />
    <glyph glyph-name="thorn" unicode="&#xfe;" horiz-adv-x="642" 
d="M471 493.5q59 -30.5 92.5 -90t33.5 -141.5q0 -87 -38 -149t-100 -93.5t-132 -31.5q-42 0 -84.5 11.5t-77.5 29.5v-229h-90v891h90v-217q78 50 174 50q73 0 132 -30.5zM453 125q49 53 49 134q0 80 -47 131.5t-133 51.5q-48 0 -88 -16t-69 -41v-267q28 -20 67.5 -33
t82.5 -13q89 0 138 53z" />
    <glyph glyph-name="scaron" unicode="&#x161;" horiz-adv-x="513" 
d="M452 497v-87q-42 14 -91.5 22.5t-96.5 8.5q-58 0 -92.5 -11.5t-34.5 -51.5q0 -41 74 -58l114 -26q72 -17 110 -48.5t38 -102.5q0 -86 -62.5 -120.5t-176.5 -34.5q-44 0 -97.5 8t-96.5 20v87q38 -12 91.5 -22t103.5 -10q66 0 106.5 15t40.5 58q0 26 -18.5 40t-52.5 23
l-150 36q-55 13 -85.5 49t-30.5 82q0 88 61.5 119t155.5 31q97 0 190 -27zM202 591l-101 145h81l75 -86l75 86h81l-101 -145h-110z" />
    <glyph glyph-name="germandbls" unicode="&#xdf;" horiz-adv-x="576" 
d="M393.5 682q49.5 -41 49.5 -117q0 -37 -12 -62t-27.5 -39.5t-41.5 -32.5q-22 -14 -32 -24.5t-10 -25.5q0 -16 11 -25.5t48 -23.5l65 -25q56 -21 84 -56.5t28 -93.5q0 -82 -50.5 -125.5t-144.5 -43.5q-34 0 -67.5 7t-73.5 21v96q26 -18 67 -29t75 -11q51 0 75.5 20.5
t24.5 64.5q0 27 -17 45t-52 31l-87 32q-41 15 -60.5 42t-19.5 69q0 32 9 52t22.5 31t35.5 25q28 17 42 33t14 48q0 74 -98 74q-46 0 -66 -21.5t-20 -69.5v-548h-90v546q0 93 44 135t136 42q89 0 138.5 -41z" />
    <glyph glyph-name="uacute" unicode="&#xfa;" horiz-adv-x="639" 
d="M564 0h-66l-13 47q-47 -28 -105.5 -43.5t-114.5 -15.5q-83 0 -136.5 48.5t-53.5 149.5v327h90v-303q0 -79 33.5 -108.5t98.5 -29.5q46 0 93 13t84 38v390h90v-513zM280 591l74 145h106l-101 -145h-79z" />
    <glyph glyph-name="ucircumflex" unicode="&#xfb;" horiz-adv-x="639" 
d="M564 0h-66l-13 47q-47 -28 -105.5 -43.5t-114.5 -15.5q-83 0 -136.5 48.5t-53.5 149.5v327h90v-303q0 -79 33.5 -108.5t98.5 -29.5q46 0 93 13t84 38v390h90v-513zM245 591h-81l101 145h110l101 -145h-81l-75 86z" />
    <glyph glyph-name="udieresis" unicode="&#xfc;" horiz-adv-x="639" 
d="M564 0h-66l-13 47q-47 -28 -105.5 -43.5t-114.5 -15.5q-83 0 -136.5 48.5t-53.5 149.5v327h90v-303q0 -79 33.5 -108.5t98.5 -29.5q46 0 93 13t84 38v390h90v-513zM172 588v96h98v-96h-98zM370 588v96h98v-96h-98z" />
    <glyph glyph-name="ugrave" unicode="&#xf9;" horiz-adv-x="639" 
d="M564 0h-66l-13 47q-47 -28 -105.5 -43.5t-114.5 -15.5q-83 0 -136.5 48.5t-53.5 149.5v327h90v-303q0 -79 33.5 -108.5t98.5 -29.5q46 0 93 13t84 38v390h90v-513zM285 591l-101 145h106l74 -145h-79z" />
    <glyph glyph-name="yacute" unicode="&#xfd;" horiz-adv-x="541" 
d="M405.5 172q-87.5 -183 -197.5 -372h-104l48 85q44 76 72 128q-142 256 -234 500h100q73 -201 185 -404q92 182 171 404h105q-58 -158 -145.5 -341zM217 591l74 145h106l-101 -145h-79z" />
    <glyph glyph-name="ydieresis" unicode="&#xff;" horiz-adv-x="541" 
d="M405.5 172q-87.5 -183 -197.5 -372h-104l48 85q44 76 72 128q-142 256 -234 500h100q73 -201 185 -404q92 182 171 404h105q-58 -158 -145.5 -341zM109 588v96h98v-96h-98zM307 588v96h98v-96h-98z" />
    <glyph glyph-name="zcaron" unicode="&#x17e;" horiz-adv-x="533" 
d="M155 77h338v-77h-453v80l335 356h-321v77h434v-80zM202 591l-101 145h81l75 -86l75 86h81l-101 -145h-110z" />
    <glyph glyph-name="mu" unicode="&#xb5;" horiz-adv-x="629" 
d="M475 47q-100 -59 -210 -59q-54 0 -100 22v-210h-90v713h90v-303q0 -79 33.5 -108.5t98.5 -29.5q91 0 167 51v390h90v-513h-66z" />
    <glyph glyph-name="ordfeminine" unicode="&#xaa;" horiz-adv-x="547" 
d="M391 645.5q41 -16.5 61 -56.5t20 -112v-252h-62l-11 32q-76 -42 -141 -42q-85 0 -133.5 36.5t-48.5 108.5q0 71 51.5 108t135.5 37q68 0 127 -28v14q0 55 -31 74t-89 19q-73 0 -168 -28v81q99 25 180 25q68 0 109 -16.5zM390 332v68q-61 28 -123 28q-45 0 -74.5 -16
t-29.5 -54q0 -34 28.5 -49t65.5 -15q70 0 133 38zM472 85v-85h-397v85h397z" />
    <glyph glyph-name="ordmasculine" unicode="&#xba;" horiz-adv-x="549" 
d="M390 635.5q52 -25.5 83 -76.5t31 -122q0 -72 -31 -122.5t-83.5 -75.5t-115.5 -25t-115 25.5t-83 75.5t-31 122q0 71 31 122t83.5 76.5t115.5 25.5t115 -25.5zM172 543q-40 -40 -40 -106q0 -61 37 -102t107 -41q69 0 105.5 41t36.5 102q0 66 -40.5 106t-102.5 40
q-63 0 -103 -40zM76 0v85h397v-85h-397z" />
    <glyph glyph-name="onehalf" unicode="&#xbd;" horiz-adv-x="896" 
d="M204 568l-104 -24v62l171 46v-368h-67v284zM220 0l337 650h97l-335 -650h-99zM576 346v-66q30 10 62.5 17t52.5 7q34 0 51 -13t17 -36q0 -38 -49 -88.5t-145 -115.5v-52h273v62h-156q68 41 108 92.5t40 102.5q0 56 -33 84.5t-99 28.5q-56 0 -122 -23z" />
    <glyph glyph-name="onequarter" unicode="&#xbc;" horiz-adv-x="869" 
d="M204 568l-104 -24v62l171 46v-368h-67v284zM220 0l337 650h97l-335 -650h-99zM779 84v-84h-65v84h-211v49q43 68 79 118t87 109h86q-61 -67 -93.5 -109t-74.5 -105h127v107h65v-107h59v-62h-59z" />
    <glyph glyph-name="threequarters" unicode="&#xbe;" horiz-adv-x="872" 
d="M228 509q123 -10 123 -104q0 -62 -45 -93t-120 -31q-56 0 -121 17v66q66 -18 119 -18q96 0 96 57q0 29 -29.5 39.5t-87.5 10.5h-39v44l97 91h-154v62h263v-55zM322 0l335 650h-97l-337 -650h99zM782 84v-84h-65v84h-211v49q43 68 79 118t87 109h86q-61 -67 -93.5 -109
t-74.5 -105h127v107h65v-107h59v-62h-59z" />
    <glyph glyph-name="uni0237" unicode="&#x237;" horiz-adv-x="228" 
d="M106 -178q-47 -34 -127 -34q-28 0 -85 13v79q47 -12 89 -12q40 0 60 17.5t20 58.5v569h90v-570q0 -87 -47 -121z" />
    <glyph glyph-name="uni00B9" unicode="&#xb9;" horiz-adv-x="400" 
d="M204 668l-104 -24v62l171 46v-368h-67v284z" />
    <glyph glyph-name="uni00B2" unicode="&#xb2;" horiz-adv-x="400" 
d="M80 730v-66q30 10 62.5 17t52.5 7q34 0 51 -13t17 -36q0 -38 -49 -88.5t-145 -115.5v-52h273v62h-156q68 41 108 92.5t40 102.5q0 56 -33 84.5t-99 28.5q-56 0 -122 -23z" />
    <glyph glyph-name="uni00B3" unicode="&#xb3;" horiz-adv-x="400" 
d="M228 603q123 -10 123 -104q0 -62 -45 -93t-120 -31q-56 0 -121 17v66q66 -18 119 -18q96 0 96 57q0 29 -29.5 39.5t-87.5 10.5h-39v44l97 91h-154v62h263v-55z" />
    <glyph glyph-name="periodcentered" unicode="&#xb7;" horiz-adv-x="200" 
d="M50 257v97h100v-97h-100z" />
    <glyph glyph-name="bullet" unicode="&#x2022;" horiz-adv-x="280" 
d="M50 219v175h180v-175h-180z" />
    <glyph glyph-name="ellipsis" unicode="&#x2026;" horiz-adv-x="600" 
d="M450 0v97h100v-97h-100zM250 0v97h100v-97h-100zM50 0v97h100v-97h-100z" />
    <glyph glyph-name="exclamdown" unicode="&#xa1;" horiz-adv-x="200" 
d="M50 513h100v-97h-100v97zM138 336l12 -473h-98l12 473h74z" />
    <glyph glyph-name="questiondown" unicode="&#xbf;" horiz-adv-x="555" 
d="M384 513v-97h-100v97h100zM106.5 -107.5q-73.5 41.5 -73.5 135.5q0 47 18.5 77t45 47t70.5 37q41 18 65 33t40 40t16 63v30h88v-41q0 -49 -22 -84t-53 -56.5t-79 -46.5q-52 -29 -75.5 -48.5t-23.5 -48.5q0 -50 48 -72t134 -22q62 0 113 13t103 34v-89q-116 -43 -218 -43
q-123 0 -196.5 41.5z" />
    <glyph glyph-name="emdash" unicode="&#x2014;" horiz-adv-x="810" 
d="M40 263v85h730v-85h-730z" />
    <glyph glyph-name="endash" unicode="&#x2013;" horiz-adv-x="510" 
d="M40 263v85h430v-85h-430z" />
    <glyph glyph-name="uni00AD" unicode="&#xad;" horiz-adv-x="410" 
d="M40 262v85h330v-85h-330z" />
    <glyph glyph-name="guillemotleft" unicode="&#xab;" horiz-adv-x="509" 
d="M247 74h-75l-107 197l107 192h74l-97 -197zM444 74h-75l-107 197l106 192h75l-97 -197z" />
    <glyph glyph-name="guillemotright" unicode="&#xbb;" horiz-adv-x="509" 
d="M140 74h-75l98 192l-97 197h75l106 -192zM337 74h-75l98 192l-97 197h74l107 -192z" />
    <glyph glyph-name="guilsinglleft" unicode="&#x2039;" horiz-adv-x="312" 
d="M247 74h-75l-107 197l107 192h74l-97 -197z" />
    <glyph glyph-name="guilsinglright" unicode="&#x203a;" horiz-adv-x="312" 
d="M140 74h-75l98 192l-97 197h74l107 -192z" />
    <glyph glyph-name="quotedblbase" unicode="&#x201e;" horiz-adv-x="302" 
d="M0 -90l51 187h86l-68 -187h-69zM140 -90l51 187h86l-68 -187h-69z" />
    <glyph glyph-name="quotedblleft" unicode="&#x201c;" horiz-adv-x="302" 
d="M25 475l68 187h69l-51 -187h-86zM165 475l68 187h69l-51 -187h-86z" />
    <glyph glyph-name="quotedblright" unicode="&#x201d;" horiz-adv-x="302" 
d="M0 475l51 187h86l-68 -187h-69zM140 475l51 187h86l-68 -187h-69z" />
    <glyph glyph-name="quoteleft" unicode="&#x2018;" horiz-adv-x="162" 
d="M162 662l-51 -187h-86l68 187h69z" />
    <glyph glyph-name="quoteright" unicode="&#x2019;" horiz-adv-x="162" 
d="M0 475l51 187h86l-68 -187h-69z" />
    <glyph glyph-name="quotesinglbase" unicode="&#x201a;" horiz-adv-x="162" 
d="M0 -90l51 187h86l-68 -187h-69z" />
    <glyph glyph-name="uni00A0" unicode="&#xa0;" horiz-adv-x="251" 
 />
    <glyph glyph-name="cent" unicode="&#xa2;" horiz-adv-x="553" 
d="M430 60.5q-32 -6.5 -75 -8.5v-82h-88v87q-99 18 -160.5 87t-61.5 176t62 176.5t160 86.5v98h88v-93q43 -2 72 -9t73 -22v-89q-53 20 -90 28t-73 8q-85 0 -141.5 -48t-56.5 -138q0 -48 23.5 -89.5t68.5 -67t106 -25.5q46 0 76 6t76 22l19 6v-89q-46 -14 -78 -20.5z" />
    <glyph glyph-name="currency" unicode="&#xa4;" horiz-adv-x="600" 
d="M463 455q42 -61 42 -124t-42 -125l64 -64l-47 -47l-65 63q-59 -41 -124 -41q-66 0 -125 41l-65 -63l-47 47l63 65q-41 59 -41 125q0 65 41 124l-64 64l47 47l65 -63q58 40 123 40q67 0 128 -40l64 63l47 -47zM219 454q-33 -19 -52 -51.5t-19 -71.5t19 -71.5t52 -51.5
t72 -19t71.5 19t51.5 51.5t19 71.5t-19 71.5t-51.5 51.5t-71.5 19t-72 -19z" />
    <glyph glyph-name="Euro" unicode="&#x20ac;" horiz-adv-x="740" 
d="M580 83.5q43 9.5 110 36.5v-92q-103 -40 -218 -40q-126 0 -210.5 55.5t-110.5 172.5h-131l30 77h91l-1 26q0 18 1 27h-101l30 77h80q24 121 107 180t217 59q52 0 111.5 -12.5t99.5 -31.5v-94q-102 52 -213 52q-87 0 -143.5 -38.5t-78.5 -114.5h269l-30 -77h-251l-1 -26
q0 -18 1 -27h261l-30 -77h-216q25 -72 84 -107t142 -35q58 0 101 9.5z" />
    <glyph glyph-name="florin" unicode="&#x192;" horiz-adv-x="426" 
d="M271 558q-16 -18 -22 -61l-7 -45h151l-11 -77h-151l-47 -347q-12 -84 -51.5 -119.5t-112.5 -35.5q-41 0 -95 12l12 85q53 -11 89 -11q33 0 49 18t22 61l46 337h-110l11 77h110l8 55q12 84 51.5 119.5t112.5 35.5q41 0 95 -12l-12 -85q-53 11 -89 11q-33 0 -49 -18z" />
    <glyph glyph-name="sterling" unicode="&#xa3;" horiz-adv-x="554" 
d="M80 0v62q29 25 45 45.5t25.5 49.5t9.5 73v106h-90v77h90v84q0 87 41.5 126t134.5 39q63 0 139 -22v-84q-80 20 -139 20q-45 0 -63.5 -18t-18.5 -61v-84h165v-77h-165v-116q0 -42 -12 -80t-48 -54h350v-86h-464z" />
    <glyph glyph-name="yen" unicode="&#xa5;" horiz-adv-x="599" 
d="M486.5 486.5q-46.5 -63.5 -95.5 -127.5h173v-77h-218v-75h218v-77h-218v-130h-94v130h-217v77h217v75h-217v77h170q-66 86 -102 135t-108 156h107q101 -159 199 -292q82 111 193 292h110q-71 -100 -117.5 -163.5z" />
    <glyph glyph-name="divide" unicode="&#xf7;" horiz-adv-x="510" 
d="M204 416v97h100v-97h-100zM470 341v-85h-430v85h430zM204 84v97h100v-97h-100z" />
    <glyph glyph-name="logicalnot" unicode="&#xac;" horiz-adv-x="510" 
d="M385 283h-345v85h430v-259h-85v174z" />
    <glyph glyph-name="multiply" unicode="&#xd7;" horiz-adv-x="509" 
d="M376 117l-121 121l-122 -121l-60 60l121 122l-121 121l60 60l122 -121l121 121l60 -60l-121 -121l121 -122z" />
    <glyph glyph-name="perthousand" unicode="&#x2030;" horiz-adv-x="1282" 
d="M323 611q42 -51 42 -136q0 -87 -42 -140.5t-126 -53.5q-83 0 -125 53.5t-42 138.5q0 86 42.5 137.5t127.5 51.5q81 0 123 -51zM224 0l337 650h97l-335 -650h-99zM138 557.5q-20 -34.5 -20 -98.5q0 -50 20.5 -78.5t58.5 -28.5t58.5 30.5t20.5 82.5q0 61 -19.5 94t-57.5 33
q-41 0 -61 -34.5zM810 314.5q42 -53.5 42 -138.5q0 -86 -42.5 -137.5t-127.5 -51.5q-81 0 -123 51t-42 136q0 87 42 140.5t126 53.5q83 0 125 -53.5zM1210 314.5q42 -53.5 42 -138.5q0 -86 -42.5 -137.5t-127.5 -51.5q-81 0 -123 51t-42 136q0 87 42 140.5t126 53.5
q83 0 125 -53.5zM627 265.5q-20 -31.5 -20 -86.5q0 -58 19 -90t57 -32q40 0 60 33.5t20 95.5q0 52 -20 81.5t-58 29.5t-58 -31.5zM1027 265.5q-20 -31.5 -20 -86.5q0 -58 19 -90t57 -32q40 0 60 33.5t20 95.5q0 52 -20 81.5t-58 29.5t-58 -31.5z" />
    <glyph glyph-name="plusminus" unicode="&#xb1;" horiz-adv-x="513" 
d="M214 142v124h-162v85h162v150h85v-150h162v-85h-162v-124h-85zM52 0v85h409v-85h-409z" />
    <glyph glyph-name="brokenbar" unicode="&#xa6;" horiz-adv-x="254" 
d="M174 734v-404h-94v404h94zM80 -250v420h94v-420h-94z" />
    <glyph glyph-name="paragraph" unicode="&#xb6;" horiz-adv-x="582" 
d="M414 -75v648h-91v-648h-88v330q-195 17 -195 195q0 200 250 200h212v-725h-88z" />
    <glyph glyph-name="copyright" unicode="&#xa9;" horiz-adv-x="852" 
d="M753 552q-49 86 -135 136t-192 50t-192 -50t-135 -136t-49 -190q0 -105 49 -190.5t135 -134t192 -48.5q105 0 191 49.5t135.5 135t49.5 188.5q0 104 -49 190zM713 195.5q-45 -75.5 -121 -119t-166 -43.5q-92 0 -168 44.5t-119.5 120t-43.5 164.5q0 91 44 167t120 120
t167 44q90 0 166.5 -44.5t121 -120.5t44.5 -166q0 -91 -45 -166.5zM501.5 563.5q30.5 -5.5 67.5 -18.5l-1 -67q-44 15 -73 21t-60 6q-64 0 -104 -36.5t-40 -106.5q0 -58 37.5 -99t106.5 -41q39 0 66 6.5t74 23.5v-70q-36 -13 -69 -18.5t-77 -5.5q-60 0 -108 24.5t-75.5 71
t-27.5 110.5t28.5 110.5t77.5 70.5t112 24q35 0 65.5 -5.5z" />
    <glyph glyph-name="registered" unicode="&#xae;" horiz-adv-x="542" 
d="M383.5 632.5q50.5 -29.5 79.5 -80t29 -111.5t-29 -111.5t-79.5 -79.5t-112.5 -29q-63 0 -113.5 28.5t-79 79t-28.5 112.5q0 61 29 111.5t79.5 80t112.5 29.5t112.5 -29.5zM361.5 285.5q41.5 23.5 65.5 64.5t24 91q0 49 -24 90t-65.5 65t-90.5 24q-50 0 -91 -24t-65 -65
t-24 -90t23.5 -90t65 -65t91.5 -24q49 0 90.5 23.5zM355 436.5q-14 -18.5 -35 -25.5q21 -27 64 -88h-53q-4 5 -22 31t-40 51h-41v-82h-46v237h95q37 0 64.5 -18.5t27.5 -57.5q0 -29 -14 -47.5zM275 448q46 0 46 36q0 34 -48 34h-45v-70h47z" />
    <glyph glyph-name="section" unicode="&#xa7;" horiz-adv-x="484" 
d="M392.5 122.5q21.5 -27.5 21.5 -70.5q0 -62 -47.5 -99t-136.5 -37q-62 0 -140 20v87q74 -23 137 -23q53 0 73 13t20 37q0 18 -13.5 28.5t-63.5 34.5l-95 47q-43 21 -60.5 46t-17.5 57q0 47 24 78t81 54l-6 3q-53 25 -76 57t-23 76q0 62 48 96.5t129 34.5q59 0 127 -16v-87
q-67 19 -123 19q-49 0 -67.5 -11t-18.5 -34q0 -21 15 -34.5t61 -36.5l95 -47q43 -21 60.5 -46t17.5 -57q0 -47 -24.5 -77.5t-83.5 -52.5l9 -5q56 -27 77.5 -54.5zM201 232l43 -21q42 20 59 38t17 47q0 30 -37 47l-46 22q-39 -18 -56 -37t-17 -48q0 -31 37 -48z" />
    <glyph glyph-name="trademark" unicode="&#x2122;" horiz-adv-x="780" 
d="M209 585v-297h-70v297h-129v65h325v-65h-126zM735.5 508.5q14.5 -70.5 34.5 -220.5h-70q-27 202 -39 252q-12 -30 -55 -146l-27 -72h-52l-32 86q-35 92 -50 129q-15 -83 -39 -249h-70q21 150 36 225t32 137h64q37 -85 85 -211q60 150 86 211h64q18 -71 32.5 -141.5z" />
    <glyph glyph-name="degree" unicode="&#xb0;" horiz-adv-x="350" 
d="M46.5 550.5q-36.5 36.5 -36.5 88.5t36.5 88.5t88.5 36.5t88.5 -36.5t36.5 -88.5t-36.5 -88.5t-88.5 -36.5t-88.5 36.5zM182.5 591.5q19.5 19.5 19.5 47.5t-19.5 47.5t-47.5 19.5t-47.5 -19.5t-19.5 -47.5t19.5 -47.5t47.5 -19.5t47.5 19.5z" />
    <glyph glyph-name="dagger" unicode="&#x2020;" horiz-adv-x="509" 
d="M212 0v413h-172v85h172v172h85v-172h172v-85h-172v-413h-85z" />
    <glyph glyph-name="daggerdbl" unicode="&#x2021;" horiz-adv-x="509" 
d="M297 298h172v-85h-172v-213h-85v213h-172v85h172v115h-172v85h172v172h85v-172h172v-85h-172v-115z" />
    <glyph glyph-name="acute" unicode="&#xb4;" 
d="M30 591l74 145h106l-101 -145h-79z" />
    <glyph glyph-name="cedilla" unicode="&#xb8;" horiz-adv-x="260" 
d="M210.5 -62.5q19.5 -19.5 19.5 -51.5q0 -93 -112 -93q-42 0 -88 13v67q52 -16 89 -16q41 0 41 30q0 11 -11.5 18t-33.5 7t-40 -3l31 96h61l-13 -44q37 -4 56.5 -23.5z" />
    <glyph glyph-name="circumflex" unicode="&#x2c6;" horiz-adv-x="372" 
d="M111 591h-81l101 145h110l101 -145h-81l-75 86z" />
    <glyph glyph-name="dieresis" unicode="&#xa8;" horiz-adv-x="356" 
d="M30 588v96h98v-96h-98zM228 588v96h98v-96h-98z" />
    <glyph glyph-name="macron" unicode="&#xaf;" horiz-adv-x="334" 
d="M30 615v77h274v-77h-274z" />
    <glyph glyph-name="tilde" unicode="&#x2dc;" horiz-adv-x="362" 
d="M302 643.5q-24 -26.5 -64 -26.5q-20 0 -62 14q-35 13 -52 13q-16 0 -23 -7t-11 -23h-60q6 44 30 70.5t64 26.5q24 0 62 -14q33 -13 52 -13q17 0 24.5 7t9.5 23h60q-6 -44 -30 -70.5z" />
    <glyph glyph-name="glyph223" 
d="M30 710l74 145h106l-101 -145h-79z" />
    <glyph glyph-name="glyph224" horiz-adv-x="372" 
d="M261 710l-75 86l-75 -86h-81l101 145h110l101 -145h-81z" />
    <glyph glyph-name="glyph225" horiz-adv-x="358" 
d="M30 707v98h100v-98h-100zM228 707v98h100v-98h-100z" />
    <glyph glyph-name="glyph226" 
d="M131 710l-101 145h106l74 -145h-79z" />
    <glyph glyph-name="glyph227" horiz-adv-x="262" 
d="M56.5 734.5q-26.5 23.5 -26.5 62.5t26.5 62.5t74.5 23.5t74.5 -23.5t26.5 -62.5t-26.5 -62.5t-74.5 -23.5t-74.5 23.5zM94 827.5q-15 -9.5 -15 -30.5t15 -30.5t37 -9.5t37 9.5t15 30.5t-15 30.5t-37 9.5t-37 -9.5z" />
    <glyph glyph-name="glyph228" horiz-adv-x="362" 
d="M302 763.5q-24 -26.5 -64 -26.5q-20 0 -62 14q-35 13 -52 13q-16 0 -23 -7t-11 -23h-60q6 44 30 70.5t64 26.5q24 0 62 -14q33 -13 52 -13q17 0 24.5 7t9.5 23h60q-6 -44 -30 -70.5z" />
    <glyph glyph-name="glyph229" horiz-adv-x="372" 
d="M131 710l-101 145h81l75 -86l75 86h81l-101 -145h-110z" />
    <glyph glyph-name="ring" unicode="&#x2da;" horiz-adv-x="262" 
d="M56.5 603.5q-26.5 23.5 -26.5 62.5t26.5 62.5t74.5 23.5t74.5 -23.5t26.5 -62.5t-26.5 -62.5t-74.5 -23.5t-74.5 23.5zM94 696.5q-15 -9.5 -15 -30.5t15 -30.5t37 -9.5t37 9.5t15 30.5t-15 30.5t-37 9.5t-37 -9.5z" />
    <glyph glyph-name="caron" unicode="&#x2c7;" horiz-adv-x="372" 
d="M131 591l-101 145h81l75 -86l75 86h81l-101 -145h-110z" />
    <glyph glyph-name="glyph232" horiz-adv-x="400" 
d="M204 284l-104 -24v62l171 46v-368h-67v284z" />
    <glyph glyph-name="glyph233" horiz-adv-x="400" 
d="M80 346v-66q30 10 62.5 17t52.5 7q34 0 51 -13t17 -36q0 -38 -49 -88.5t-145 -115.5v-52h273v62h-156q68 41 108 92.5t40 102.5q0 56 -33 84.5t-99 28.5q-56 0 -122 -23z" />
    <glyph glyph-name="glyph234" horiz-adv-x="400" 
d="M228 219q123 -10 123 -104q0 -62 -45 -93t-120 -31q-56 0 -121 17v66q66 -18 119 -18q96 0 96 57q0 29 -29.5 39.5t-87.5 10.5h-39v44l97 91h-154v62h263v-55z" />
    </font>
</defs>
</svg>
